HIERARCHY
ROOT Hips
{
	OFFSET 0.000000 35.082581 0.000000
	CHANNELS 6 Xposition Yposition Zposition Xrotation Yrotation Zrotation 
	JOINT Spine
	{
		OFFSET 0.000000 6.876099 0.125700
		CHANNELS 3 Xrotation Yrotation Zrotation
		JOINT Spine1
		{
			OFFSET 0.000000 5.730043 0.104720
			CHANNELS 3 Xrotation Yrotation Zrotation
			JOINT Spine1_split
			{
				OFFSET 0.000000 5.730043 0.104720
				CHANNELS 3 Xrotation Yrotation Zrotation
				JOINT Spine2
				{
					OFFSET 0.000000 5.730043 0.104720
					CHANNELS 3 Xrotation Yrotation Zrotation
					JOINT Neck
					{
						OFFSET 0.000000 10.314075 0.188496
						CHANNELS 3 Xrotation Yrotation Zrotation
						JOINT Head
						{
							OFFSET 0.000000 7.643700 -2.377400
							CHANNELS 3 Xrotation Yrotation Zrotation
							JOINT HeadTop_End
							{
								OFFSET 0.000000 43.788605 -13.619600
								CHANNELS 3 Xrotation Yrotation Zrotation
								End Site
								{
									OFFSET 0.000000 0.000000 0.000000
								}
							}
						}
					}
					JOINT LeftShoulder
					{
						OFFSET 2.196100 4.412489 0.087492
						CHANNELS 3 Xrotation Yrotation Zrotation
						JOINT LeftShoulder_split
						{
							OFFSET 2.196100 4.412489 0.087492
							CHANNELS 3 Xrotation Yrotation Zrotation
							JOINT LeftArm
							{
								OFFSET 8.771219 -2.981674 -0.026999
								CHANNELS 3 Xrotation Yrotation Zrotation
								JOINT LeftForeArm
								{
									OFFSET 8.512804 0.000000 -0.000000
									CHANNELS 3 Xrotation Yrotation Zrotation
									JOINT LeftHand
									{
										OFFSET 18.484802 0.000000 -0.000000
										CHANNELS 3 Xrotation Yrotation Zrotation
										JOINT LeftHandThumb1
										{
											OFFSET 2.499420 -1.158070 2.653252
											CHANNELS 3 Xrotation Yrotation Zrotation
											JOINT LeftHandThumb2
											{
												OFFSET 2.370079 -1.368366 1.368366
												CHANNELS 3 Xrotation Yrotation Zrotation
												JOINT LeftHandThumb3
												{
													OFFSET 2.676727 -1.545410 1.545409
													CHANNELS 3 Xrotation Yrotation Zrotation
													JOINT LeftHandThumb4
													{
														OFFSET 1.692226 -0.977005 0.977007
														CHANNELS 3 Xrotation Yrotation Zrotation
														End Site
														{
															OFFSET 0.000000 0.000000 0.000000
														}
													}
												}
											}
										}
										JOINT LeftHandIndex1
										{
											OFFSET 7.924831 -0.457527 2.345128
											CHANNELS 3 Xrotation Yrotation Zrotation
											JOINT LeftHandIndex2
											{
												OFFSET 3.643303 0.000000 0.000000
												CHANNELS 3 Xrotation Yrotation Zrotation
												JOINT LeftHandIndex3
												{
													OFFSET 3.810799 0.000000 0.000000
													CHANNELS 3 Xrotation Yrotation Zrotation
													JOINT LeftHandIndex4
													{
														OFFSET 2.403702 0.000000 0.000000
														CHANNELS 3 Xrotation Yrotation Zrotation
														End Site
														{
															OFFSET 0.000000 0.000000 0.000000
														}
													}
												}
											}
										}
										JOINT LeftHandMiddle1
										{
											OFFSET 8.563995 0.000000 -0.000000
											CHANNELS 3 Xrotation Yrotation Zrotation
											JOINT LeftHandMiddle2
											{
												OFFSET 3.861618 0.000000 0.000000
												CHANNELS 3 Xrotation Yrotation Zrotation
												JOINT LeftHandMiddle3
												{
													OFFSET 3.701603 0.000000 0.000000
													CHANNELS 3 Xrotation Yrotation Zrotation
													JOINT LeftHandMiddle4
													{
														OFFSET 2.322544 0.000000 0.000000
														CHANNELS 3 Xrotation Yrotation Zrotation
														End Site
														{
															OFFSET 0.000000 0.000000 0.000000
														}
													}
												}
											}
										}
										JOINT LeftHandRing1
										{
											OFFSET 8.426460 -0.424637 -3.286992
											CHANNELS 3 Xrotation Yrotation Zrotation
											JOINT LeftHandRing2
											{
												OFFSET 3.126408 0.000000 0.000000
												CHANNELS 3 Xrotation Yrotation Zrotation
												JOINT LeftHandRing3
												{
													OFFSET 3.085026 0.000000 0.000000
													CHANNELS 3 Xrotation Yrotation Zrotation
													JOINT LeftHandRing4
													{
														OFFSET 1.644005 0.000000 0.000000
														CHANNELS 3 Xrotation Yrotation Zrotation
														End Site
														{
															OFFSET 0.000000 0.000000 0.000000
														}
													}
												}
											}
										}
									}
								}
							}
						}
					}
					JOINT RightShoulder
					{
						OFFSET -2.196100 4.412496 0.070690
						CHANNELS 3 Xrotation Yrotation Zrotation
						JOINT RightShoulder_split
						{
							OFFSET -2.196100 4.412496 0.070690
							CHANNELS 3 Xrotation Yrotation Zrotation
							JOINT RightArm
							{
								OFFSET -8.771282 -2.981682 -0.094208
								CHANNELS 3 Xrotation Yrotation Zrotation
								JOINT RightForeArm
								{
									OFFSET -8.494598 0.000000 0.000000
									CHANNELS 3 Xrotation Yrotation Zrotation
									JOINT RightHand
									{
										OFFSET -18.483803 0.000000 0.000001
										CHANNELS 3 Xrotation Yrotation Zrotation
										JOINT RightHandThumb1
										{
											OFFSET -2.527351 -1.008072 2.575253
											CHANNELS 3 Xrotation Yrotation Zrotation
											JOINT RightHandThumb2
											{
												OFFSET -2.321518 -1.340328 1.340329
												CHANNELS 3 Xrotation Yrotation Zrotation
												JOINT RightHandThumb3
												{
													OFFSET -2.657753 -1.534454 1.534455
													CHANNELS 3 Xrotation Yrotation Zrotation
													JOINT RightHandThumb4
													{
														OFFSET -1.807510 -1.043568 1.043567
														CHANNELS 3 Xrotation Yrotation Zrotation
														End Site
														{
															OFFSET 0.000000 0.000000 0.000000
														}
													}
												}
											}
										}
										JOINT RightHandIndex1
										{
											OFFSET -8.811420 0.015533 2.887987
											CHANNELS 3 Xrotation Yrotation Zrotation
											JOINT RightHandIndex2
											{
												OFFSET -3.537502 0.000000 0.000000
												CHANNELS 3 Xrotation Yrotation Zrotation
												JOINT RightHandIndex3
												{
													OFFSET -3.356201 0.000000 0.000000
													CHANNELS 3 Xrotation Yrotation Zrotation
													JOINT RightHandIndex4
													{
														OFFSET -1.933098 0.000000 0.000000
														CHANNELS 3 Xrotation Yrotation Zrotation
														End Site
														{
															OFFSET 0.000000 0.000000 0.000000
														}
													}
												}
											}
										}
										JOINT RightHandMiddle1
										{
											OFFSET -8.178135 0.000000 0.000000
											CHANNELS 3 Xrotation Yrotation Zrotation
											JOINT RightHandMiddle2
											{
												OFFSET -3.901302 0.000000 0.000000
												CHANNELS 3 Xrotation Yrotation Zrotation
												JOINT RightHandMiddle3
												{
													OFFSET -3.909599 0.000000 0.000000
													CHANNELS 3 Xrotation Yrotation Zrotation
													JOINT RightHandMiddle4
													{
														OFFSET -2.376003 0.000000 0.000000
														CHANNELS 3 Xrotation Yrotation Zrotation
														End Site
														{
															OFFSET 0.000000 0.000000 0.000000
														}
													}
												}
											}
										}
										JOINT RightHandRing1
										{
											OFFSET -7.559013 0.014137 -2.865403
											CHANNELS 3 Xrotation Yrotation Zrotation
											JOINT RightHandRing2
											{
												OFFSET -3.449306 0.000000 0.000000
												CHANNELS 3 Xrotation Yrotation Zrotation
												JOINT RightHandRing3
												{
													OFFSET -3.362106 0.000000 0.000000
													CHANNELS 3 Xrotation Yrotation Zrotation
													JOINT RightHandRing4
													{
														OFFSET -2.076401 0.000000 0.000000
														CHANNELS 3 Xrotation Yrotation Zrotation
														End Site
														{
															OFFSET 0.000000 0.000000 0.000000
														}
													}
												}
											}
										}
									}
								}
							}
						}
					}
				}
			}
		}
	}
	JOINT LeftUpLeg
	{
		OFFSET 10.205400 -3.823500 0.155100
		CHANNELS 3 Xrotation Yrotation Zrotation
		JOINT LeftLeg
		{
			OFFSET 0.708757 -12.982077 0.567790
			CHANNELS 3 Xrotation Yrotation Zrotation
			JOINT LeftFoot
			{
				OFFSET -0.708756 -10.717838 -2.184338
				CHANNELS 3 Xrotation Yrotation Zrotation
				JOINT LeftToeBase
				{
					OFFSET 0.108149 -7.191104 7.560241
					CHANNELS 3 Xrotation Yrotation Zrotation
					JOINT LeftToe_End
					{
						OFFSET 0.070230 0.081724 4.490308
						CHANNELS 3 Xrotation Yrotation Zrotation
						End Site
						{
							OFFSET 0.000000 0.000000 0.000000
						}
					}
				}
			}
		}
	}
	JOINT RightUpLeg
	{
		OFFSET -10.205400 -3.823500 0.005500
		CHANNELS 3 Xrotation Yrotation Zrotation
		JOINT RightLeg
		{
			OFFSET -0.708756 -12.982134 0.610632
			CHANNELS 3 Xrotation Yrotation Zrotation
			JOINT RightFoot
			{
				OFFSET 0.708754 -10.717769 -1.945823
				CHANNELS 3 Xrotation Yrotation Zrotation
				JOINT RightToeBase
				{
					OFFSET -0.108140 -7.191069 7.372968
					CHANNELS 3 Xrotation Yrotation Zrotation
					JOINT RightToe_End
					{
						OFFSET -0.070227 0.081735 4.479403
						CHANNELS 3 Xrotation Yrotation Zrotation
						End Site
						{
							OFFSET 0.000000 0.000000 0.000000
						}
					}
				}
			}
		}
	}
}
MOTION
Frames: 5
Frame Time: 0.016667
0.634944 30.360588 -0.499650 -6.074719 -42.881574 -3.766409 5.853120 4.467720 -1.469863 11.836543 9.037620 -3.083968 0.000000 0.000000 0.000000 11.836542 9.037613 -3.083969 -9.907372 -1.416034 0.452971 -0.529822 20.570691 -0.772809 -0.000000 -0.000000 -0.000000 1.396590 -0.734484 -7.859820 0.000000 0.000000 0.000000 -14.236654 2.407756 -63.256800 9.875226 -47.538380 5.912051 16.118543 0.922149 18.828759 9.163611 4.814108 -5.499003 -0.335369 0.032566 0.783679 -0.000001 -0.000009 -0.000002 -0.000004 -0.000001 -0.000002 -0.902009 -6.980961 -3.808408 0.033416 0.804247 -16.418965 -0.000017 -0.000002 -0.000014 0.000000 -0.000002 -0.000000 1.947851 9.683075 -14.539794 -0.456427 -1.565417 -21.881022 -0.000003 0.000005 -0.000006 -0.000000 -0.000001 0.000001 2.605847 14.896830 -31.345241 -0.576851 -2.712402 -32.011536 0.000001 -0.000001 0.000003 -0.000003 -0.000002 -0.000001 1.410929 9.461499 9.792752 0.000000 0.000000 0.000000 1.220070 -24.270684 60.532866 -6.660687 41.858449 8.043884 6.225203 12.322296 11.673248 -8.898174 -4.908924 -0.379254 7.904826 -19.192490 -2.856856 0.000014 0.000003 -0.000007 -0.000000 -0.000003 0.000001 -1.085507 -1.215483 4.525250 0.142020 -1.115590 16.942627 0.000001 0.000003 0.000002 0.000001 -0.000001 0.000000 -0.668335 -2.904951 12.731532 -0.667273 1.816581 30.578764 0.000004 0.000003 0.000000 0.000001 0.000001 -0.000002 2.423630 -7.404552 21.763291 -0.987204 3.762998 37.431185 0.000002 0.000002 0.000006 0.000001 0.000001 -0.000004 -38.735738 0.627900 18.109748 41.167336 -15.212389 -0.680354 -0.048589 1.050152 -12.870605 -2.319105 -3.216953 0.802943 0.000000 -0.000004 -0.000000 7.917370 -14.559248 -20.732563 34.896953 -4.419867 0.609730 -32.427399 -10.398808 23.812445 -1.784932 -0.356705 0.333193 0.000000 -0.000002 -0.000000 
0.707352 30.266525 -0.546225 -4.937063 -43.640486 -3.033226 5.949136 4.364600 -1.407926 12.025235 8.854460 -2.993142 0.000000 0.000000 0.000000 12.025228 8.854469 -2.993144 -10.777264 -0.439170 0.984891 -1.745469 21.729755 -1.808205 -0.000000 0.000000 -0.000000 0.965645 -1.032592 -7.966154 0.000000 0.000000 0.000000 -15.103298 0.865208 -62.925112 10.783013 -44.898194 6.185701 16.918908 -0.292566 19.627066 9.349439 4.758721 -5.687987 -0.198641 0.325449 0.830097 -0.000005 -0.000007 -0.000002 -0.000003 -0.000002 -0.000004 -1.019732 -6.725073 -5.312740 -0.024124 0.621134 -18.002338 -0.000015 -0.000002 -0.000017 0.000000 -0.000003 0.000002 2.038157 9.433259 -15.807841 -0.518325 -1.712244 -23.341902 -0.000002 0.000005 -0.000005 -0.000003 -0.000000 -0.000000 2.629680 14.587916 -32.393801 -0.622589 -2.782457 -33.387017 0.000001 0.000001 0.000002 0.000004 -0.000000 0.000001 0.953497 9.999499 9.272296 0.000000 0.000000 0.000000 0.949920 -23.054626 60.574544 -5.823107 42.180851 7.329607 6.263648 12.051177 10.451356 -8.629384 -4.893352 -0.125863 7.913500 -19.223991 -2.860398 0.000011 0.000003 -0.000009 -0.000001 -0.000003 -0.000000 -1.071997 -1.312173 5.663825 0.107973 -1.008042 18.067636 0.000001 0.000004 0.000002 -0.000001 0.000001 0.000000 -0.667779 -2.883310 13.714695 -0.713122 1.892760 31.570992 0.000004 0.000003 0.000001 -0.000000 0.000000 -0.000002 2.379268 -7.310030 22.637159 -1.035013 3.824189 38.329485 0.000004 -0.000003 0.000007 -0.000001 -0.000000 0.000000 -40.004070 0.636136 18.467780 42.104004 -14.958695 -0.639051 -0.476791 1.149437 -12.945371 -2.223170 -3.083334 0.769141 0.000000 -0.000000 0.000000 5.932304 -12.173538 -20.645287 37.346996 -5.829765 0.438993 -33.117842 -10.549439 24.484160 -1.784921 -0.356722 0.333205 -0.000000 -0.000000 -0.000000 
0.822595 30.117085 -0.623661 -3.041500 -44.383741 -1.566976 6.048577 4.189881 -1.370264 12.224170 8.528418 -2.981042 0.000000 0.000000 0.000000 12.224177 8.528397 -2.981036 -12.706023 0.665371 1.229651 -2.359375 22.874647 -2.642888 0.000001 -0.000000 -0.000000 0.265564 -1.356453 -8.721261 0.000000 0.000000 0.000000 -15.849143 -0.272473 -61.599120 11.914446 -42.970663 5.909699 17.937619 -1.587086 20.477095 9.860285 4.600701 -6.210160 0.178190 1.135726 0.954698 0.000003 -0.000009 0.000001 -0.000004 0.000000 0.000003 -1.259497 -6.014152 -9.465744 -0.209150 0.123947 -22.380650 -0.000017 0.000000 -0.000010 -0.000005 0.000002 -0.000003 2.249206 8.742730 -19.308588 -0.708693 -2.109444 -27.382315 -0.000006 0.000005 -0.000003 0.000002 -0.000000 -0.000000 2.646765 13.741526 -35.282650 -0.757569 -2.970201 -37.190520 0.000002 -0.000000 0.000001 0.000004 -0.000000 0.000002 0.311105 10.730838 8.924885 0.000000 0.000000 0.000000 0.830482 -21.973979 60.244536 -4.994635 43.080001 7.063694 6.221344 11.810346 8.625568 -7.878581 -4.840437 0.584321 7.937758 -19.312208 -2.870387 0.000010 0.000003 -0.000009 -0.000000 0.000000 0.000003 -1.004368 -1.581460 8.851895 0.001592 -0.710722 21.217826 0.000002 0.000002 0.000002 0.000000 0.000002 0.000001 -0.662316 -2.824120 16.467581 -0.848400 2.101715 34.349773 0.000005 0.000003 -0.000001 -0.000001 0.000000 0.000001 2.247669 -7.051104 25.083665 -1.173848 3.991415 40.845149 0.000003 -0.000000 0.000008 -0.000001 -0.000001 -0.000000 -42.005144 0.618326 18.561121 43.041670 -14.559323 -0.578857 -0.655436 1.221456 -13.055175 -2.120725 -2.940640 0.733029 0.000000 -0.000002 -0.000000 2.747741 -9.516842 -20.896095 41.011133 -7.027485 0.270693 -34.236006 -10.811102 25.180720 -1.953933 -0.510405 0.392351 0.000000 0.000001 0.000000 
0.960830 29.934185 -0.720708 -0.811795 -45.123655 0.208026 6.170746 3.987166 -1.361220 12.470203 8.138654 -3.034275 0.000000 0.000000 0.000000 12.470207 8.138647 -3.034278 -14.888605 1.797573 1.647218 -2.987668 24.094358 -3.539505 -0.000000 0.000000 0.000000 -0.375959 -1.611369 -9.419317 0.000000 0.000000 0.000000 -16.940416 -1.632606 -60.270464 12.892814 -40.769051 5.492836 19.195880 -3.354576 21.651915 10.623823 4.348442 -6.998073 0.744558 2.361291 1.132677 0.000001 -0.000009 -0.000000 0.000000 0.000000 0.000001 -1.386187 -4.956156 -15.725920 -0.554569 -0.599294 -28.997978 -0.000014 -0.000002 -0.000014 0.000000 0.000001 -0.000000 2.463013 7.707542 -24.585467 -1.048241 -2.681537 -33.490494 -0.000002 0.000004 -0.000004 -0.000001 0.000001 0.000001 2.540698 12.492720 -39.622549 -0.984459 -3.235784 -42.938298 0.000003 0.000001 -0.000000 0.000000 0.000001 -0.000000 -0.442251 11.779068 8.775491 0.000000 0.000000 0.000000 0.563398 -20.903034 59.747940 -4.165690 43.767777 6.786846 6.490508 12.058527 6.153614 -6.731242 -4.732385 1.676329 7.975054 -19.447685 -2.885659 0.000012 0.000001 -0.000008 0.000001 0.000001 0.000002 -0.815431 -1.983356 13.748238 -0.192952 -0.266695 26.056468 0.000002 0.000004 0.000002 0.000000 -0.000001 -0.000002 -0.642470 -2.735972 20.695284 -1.075427 2.409171 38.618976 0.000008 0.000000 0.000006 -0.000001 -0.000000 -0.000005 2.025507 -6.670630 28.840242 -1.401009 4.235907 44.710330 0.000005 -0.000000 0.000011 0.000000 0.000001 -0.000001 -44.328139 0.508006 18.602442 44.080456 -14.064352 -0.514825 -0.781777 1.305843 -13.215520 -2.012679 -2.790128 0.694956 0.000000 -0.000005 -0.000000 -1.060872 -7.359309 -21.441680 44.874988 -7.439035 0.185628 -35.373082 -10.979849 25.689723 -2.113572 -0.667533 0.422039 0.000000 0.000000 0.000000 
1.122148 29.712585 -0.836271 1.797180 -45.813364 2.328875 6.284008 3.756675 -1.379242 12.699076 7.684463 -3.146811 0.000000 0.000000 0.000000 12.699071 7.684446 -3.146806 -17.369950 3.005141 2.119274 -3.503564 25.295355 -4.286095 -0.000000 0.000000 0.000000 -0.875531 -1.769860 -10.074855 0.000000 0.000000 0.000000 -18.137863 -3.049781 -58.867549 13.873486 -38.764769 5.003154 20.643381 -5.385986 23.224351 11.566514 4.009520 -7.983890 1.450300 3.899836 1.338480 0.000001 -0.000007 -0.000000 -0.000000 0.000001 -0.000002 -1.160706 -3.722307 -23.559134 -1.102011 -1.442417 -37.300834 -0.000013 -0.000002 -0.000014 0.000001 -0.000001 -0.000000 2.560416 6.442447 -31.187313 -1.557031 -3.342307 -41.156261 -0.000004 0.000005 -0.000003 -0.000000 -0.000000 -0.000001 2.194654 10.999820 -45.031628 -1.304657 -3.534473 -50.146781 0.000002 -0.000001 -0.000001 -0.000000 -0.000001 -0.000001 -0.838650 13.098411 8.883102 0.000000 0.000000 0.000000 -0.164329 -19.694710 59.041228 -3.226357 44.201480 6.321460 7.397508 13.064349 2.595381 -5.275070 -4.547224 3.074519 8.022733 -19.620955 -2.905185 0.000011 0.000002 -0.000009 0.000003 0.000002 0.000001 -0.426733 -2.456282 20.012126 -0.494845 0.274599 32.247598 0.000002 0.000000 0.000001 0.000001 -0.000001 -0.000000 -0.596302 -2.624427 26.102796 -1.398075 2.776317 44.082697 0.000006 -0.000001 -0.000002 -0.000000 0.000000 0.000001 1.708522 -6.216421 33.644754 -1.714582 4.525283 49.657296 0.000005 -0.000000 0.000010 -0.000000 -0.000000 0.000001 -47.036508 0.328283 18.614625 45.227679 -13.509809 -0.474339 -0.834703 1.376514 -13.394099 -1.899895 -2.633026 0.655206 0.000000 0.000006 0.000000 -5.436257 -5.549523 -22.162176 48.896249 -7.279709 0.061097 -36.526766 -11.095323 26.062661 -2.254266 -0.829116 0.416664 -0.000000 -0.000001 0.000000 
